<svg width="31" height="26" viewBox="0 0 31 26" fill="none" xmlns="http://www.w3.org/2000/svg">
<path d="M26.5714 0H4.42857C3.25443 0.00125454 2.12876 0.458204 1.29851 1.27059C0.468274 2.08298 0.00128211 3.18445 0 4.33333V21.6667C0.00128211 22.8155 0.468274 23.917 1.29851 24.7294C2.12876 25.5418 3.25443 25.9987 4.42857 26H26.5714C27.7456 25.9987 28.8712 25.5418 29.7015 24.7294C30.5317 23.917 30.9987 22.8155 31 21.6667V4.33333C30.9987 3.18445 30.5317 2.08298 29.7015 1.27059C28.8712 0.458204 27.7456 0.00125454 26.5714 0ZM21.0357 4.33333C21.6926 4.33333 22.3348 4.52394 22.881 4.88106C23.4272 5.23817 23.8529 5.74575 24.1043 6.33961C24.3557 6.93347 24.4215 7.58694 24.2933 8.21738C24.1652 8.84781 23.8488 9.42691 23.3843 9.88143C22.9198 10.336 22.328 10.6455 21.6837 10.7709C21.0394 10.8963 20.3716 10.8319 19.7647 10.5859C19.1577 10.34 18.639 9.9234 18.274 9.38894C17.9091 8.85448 17.7143 8.22612 17.7143 7.58333C17.7152 6.72165 18.0654 5.89552 18.6881 5.28622C19.3108 4.67693 20.1551 4.33423 21.0357 4.33333ZM4.42857 23.8333C3.84131 23.8333 3.27809 23.6051 2.86283 23.1987C2.44758 22.7924 2.21429 22.2413 2.21429 21.6667V17.0876L8.77687 11.3797C9.41005 10.8303 10.2335 10.5377 11.0795 10.5616C11.9255 10.5855 12.7303 10.9241 13.33 11.5084L17.8243 15.8966L9.7131 23.8333H4.42857ZM28.7857 21.6667C28.7857 22.2413 28.5524 22.7924 28.1372 23.1987C27.7219 23.6051 27.1587 23.8333 26.5714 23.8333H12.8449L21.2468 15.6122C21.8416 15.1172 22.5965 14.8445 23.3774 14.8425C24.1582 14.8405 24.9146 15.1094 25.512 15.6014L28.7857 18.2704V21.6667Z" fill="#C7C7C7"/>
</svg>
