<svg width="62" height="56" viewBox="0 0 62 56" fill="none" xmlns="http://www.w3.org/2000/svg">
<g id="ph:image" opacity="0.1">
<path id="Vector" d="M57.125 0.896484H4.875C3.61522 0.896484 2.40704 1.40924 1.51624 2.32194C0.625445 3.23464 0.125 4.47253 0.125 5.76329V49.5645C0.125 50.8553 0.625445 52.0932 1.51624 53.0059C2.40704 53.9186 3.61522 54.4313 4.875 54.4313H57.125C58.3848 54.4313 59.593 53.9186 60.4838 53.0059C61.3746 52.0932 61.875 50.8553 61.875 49.5645V5.76329C61.875 4.47253 61.3746 3.23464 60.4838 2.32194C59.593 1.40924 58.3848 0.896484 57.125 0.896484ZM57.125 5.76329V37.0173L49.3855 29.0905C48.9444 28.6384 48.4207 28.2799 47.8443 28.0352C47.268 27.7906 46.6502 27.6646 46.0263 27.6646C45.4025 27.6646 44.7847 27.7906 44.2083 28.0352C43.632 28.2799 43.1083 28.6384 42.6672 29.0905L36.7297 35.174L23.6672 21.7903C22.7765 20.8783 21.5688 20.366 20.3095 20.366C19.0503 20.366 17.8426 20.8783 16.9519 21.7903L4.875 34.1641V5.76329H57.125ZM4.875 41.0476L20.3125 25.2305L44.0625 49.5645H4.875V41.0476ZM57.125 49.5645H50.7808L40.0933 38.6142L46.0308 32.5307L57.125 43.9008V49.5645ZM35.75 19.147C35.75 18.4251 35.9589 17.7194 36.3504 17.1191C36.7418 16.5189 37.2982 16.051 37.9492 15.7747C38.6002 15.4985 39.3165 15.4262 40.0075 15.567C40.6986 15.7079 41.3333 16.0555 41.8316 16.566C42.3298 17.0765 42.6691 17.7268 42.8065 18.4349C42.944 19.1429 42.8735 19.8769 42.6038 20.5438C42.3342 21.2108 41.8776 21.7809 41.2917 22.1819C40.7059 22.583 40.0171 22.7971 39.3125 22.7971C38.3677 22.7971 37.4615 22.4125 36.7934 21.728C36.1253 21.0435 35.75 20.1151 35.75 19.147Z" fill="white"/>
</g>
</svg>
